<svg width="25" height="24" viewBox="0 0 25 24" fill="none" xmlns="http://www.w3.org/2000/svg">
<g clip-path="url(#clip0_164_729)">
<path fill-rule="evenodd" clip-rule="evenodd" d="M12.1272 0C5.49978 0 0.127197 5.37258 0.127197 12C0.127197 18.6274 5.49978 24 12.1272 24C18.7546 24 24.1272 18.6274 24.1272 12C24.1272 5.37258 18.7546 0 12.1272 0ZM13.378 12.5271V19.0557H10.6767V12.5274H9.3272V10.2776H10.6767V8.92678C10.6767 7.0914 11.4388 6 13.6038 6H15.4062V8.25006H14.2796C13.4368 8.25006 13.381 8.56447 13.381 9.15125L13.378 10.2773H15.419L15.1802 12.5271H13.378Z" fill="white"/>
</g>
<defs>
<clipPath id="clip0_164_729">
<rect width="24" height="24" fill="white" transform="translate(0.127197)"/>
</clipPath>
</defs>
</svg>
