<svg width="25" height="24" viewBox="0 0 25 24" fill="none" xmlns="http://www.w3.org/2000/svg">
<g clip-path="url(#clip0_164_731)">
<path fill-rule="evenodd" clip-rule="evenodd" d="M12.1272 0C5.49978 0 0.127197 5.37258 0.127197 12C0.127197 18.6274 5.49978 24 12.1272 24C18.7546 24 24.1272 18.6274 24.1272 12C24.1272 5.37258 18.7546 0 12.1272 0ZM9.48884 5.63867C10.1715 5.6076 10.3896 5.6 12.1278 5.6H12.1258C13.8645 5.6 14.0818 5.6076 14.7645 5.63867C15.4458 5.66987 15.9112 5.77774 16.3192 5.936C16.7405 6.09934 17.0965 6.31801 17.4525 6.67401C17.8085 7.02975 18.0272 7.38682 18.1912 7.80776C18.3485 8.21469 18.4565 8.67977 18.4885 9.36111C18.5192 10.0438 18.5272 10.2619 18.5272 12.0001C18.5272 13.7382 18.5192 13.9558 18.4885 14.6385C18.4565 15.3196 18.3485 15.7848 18.1912 16.1918C18.0272 16.6126 17.8085 16.9697 17.4525 17.3255C17.0969 17.6815 16.7404 17.9007 16.3196 18.0641C15.9124 18.2224 15.4468 18.3303 14.7654 18.3615C14.0828 18.3925 13.8653 18.4001 12.127 18.4001C10.389 18.4001 10.171 18.3925 9.4883 18.3615C8.8071 18.3303 8.34189 18.2224 7.93469 18.0641C7.51402 17.9007 7.15695 17.6815 6.80134 17.3255C6.44547 16.9697 6.2268 16.6126 6.0632 16.1917C5.90507 15.7848 5.7972 15.3197 5.76586 14.6384C5.73493 13.9557 5.7272 13.7382 5.7272 12.0001C5.7272 10.2619 5.7352 10.0436 5.76573 9.36097C5.7964 8.6799 5.9044 8.21469 6.06307 7.80762C6.22707 7.38682 6.44574 7.02975 6.80174 6.67401C7.15748 6.31814 7.51455 6.09947 7.93549 5.936C8.34242 5.77774 8.8075 5.66987 9.48884 5.63867Z" fill="white"/>
<path fill-rule="evenodd" clip-rule="evenodd" d="M11.5537 6.75335C11.6651 6.75317 11.7851 6.75322 11.9145 6.75328L12.1278 6.75335C13.8366 6.75335 14.0392 6.75948 14.714 6.79015C15.338 6.81868 15.6766 6.92295 15.9022 7.01055C16.2009 7.12655 16.4138 7.26522 16.6377 7.48922C16.8617 7.71322 17.0004 7.92656 17.1166 8.22523C17.2043 8.45056 17.3087 8.78923 17.3371 9.41324C17.3677 10.0879 17.3744 10.2906 17.3744 11.9986C17.3744 13.7066 17.3677 13.9093 17.3371 14.584C17.3085 15.208 17.2043 15.5466 17.1166 15.772C17.0006 16.0706 16.8617 16.2833 16.6377 16.5072C16.4137 16.7312 16.201 16.8699 15.9022 16.9859C15.6769 17.0739 15.338 17.1779 14.714 17.2064C14.0393 17.2371 13.8366 17.2437 12.1278 17.2437C10.4188 17.2437 10.2163 17.2371 9.54164 17.2064C8.91763 17.1776 8.57896 17.0733 8.35322 16.9857C8.05455 16.8697 7.84122 16.731 7.61722 16.507C7.39321 16.283 7.25455 16.0702 7.13828 15.7714C7.05068 15.5461 6.94628 15.2074 6.91788 14.5834C6.88721 13.9088 6.88108 13.7061 6.88108 11.997C6.88108 10.2879 6.88721 10.0863 6.91788 9.41164C6.94641 8.78763 7.05068 8.44896 7.13828 8.22336C7.25428 7.92469 7.39321 7.71136 7.61722 7.48735C7.84122 7.26335 8.05455 7.12468 8.35322 7.00841C8.57883 6.92041 8.91763 6.81641 9.54164 6.78775C10.132 6.76108 10.3608 6.75308 11.5537 6.75175V6.75335ZM15.5441 7.81602C15.1201 7.81602 14.7761 8.15963 14.7761 8.58376C14.7761 9.00777 15.1201 9.35177 15.5441 9.35177C15.9681 9.35177 16.3121 9.00777 16.3121 8.58376C16.3121 8.15976 15.9681 7.81602 15.5441 7.81602ZM8.8411 12.0001C8.8411 10.185 10.3126 8.71344 12.1277 8.71337C13.9427 8.71337 15.414 10.185 15.414 12.0001C15.414 13.8152 13.9429 15.2861 12.1278 15.2861C10.3127 15.2861 8.8411 13.8152 8.8411 12.0001Z" fill="white"/>
<path d="M12.1278 9.86671C13.3059 9.86671 14.2612 10.8218 14.2612 12.0001C14.2612 13.1782 13.3059 14.1334 12.1278 14.1334C10.9495 14.1334 9.99444 13.1782 9.99444 12.0001C9.99444 10.8218 10.9495 9.86671 12.1278 9.86671Z" fill="white"/>
</g>
<defs>
<clipPath id="clip0_164_731">
<rect width="24" height="24" fill="white" transform="translate(0.127197)"/>
</clipPath>
</defs>
</svg>
