<svg width="25" height="24" viewBox="0 0 25 24" fill="none" xmlns="http://www.w3.org/2000/svg">
<g clip-path="url(#clip0_164_734)">
<path fill-rule="evenodd" clip-rule="evenodd" d="M12.1272 0C5.49978 0 0.127197 5.37258 0.127197 12C0.127197 18.6274 5.49978 24 12.1272 24C18.7546 24 24.1272 18.6274 24.1272 12C24.1272 5.37258 18.7546 0 12.1272 0ZM11.793 10.169L11.7678 9.75375C11.6923 8.67755 12.3554 7.69456 13.4046 7.31323C13.7907 7.17765 14.4454 7.1607 14.8735 7.27934C15.0414 7.33018 15.3603 7.49966 15.587 7.65219L15.9983 7.93184L16.4515 7.78778C16.7033 7.71151 17.0391 7.5844 17.1902 7.49966C17.3329 7.4234 17.4588 7.38102 17.4588 7.40645C17.4588 7.55051 17.1482 8.042 16.888 8.31317C16.5354 8.6945 16.6362 8.72839 17.3496 8.47417C17.7777 8.33012 17.7861 8.33012 17.7022 8.49112C17.6518 8.57586 17.3916 8.87245 17.1146 9.14362C16.6446 9.60969 16.6194 9.66054 16.6194 10.0503C16.6194 10.652 16.334 11.9062 16.0486 12.5925C15.5198 13.8806 14.3866 15.211 13.2535 15.8805C11.6587 16.8211 9.53506 17.0584 7.74719 16.5075C7.15124 16.3211 6.1272 15.8466 6.1272 15.7618C6.1272 15.7364 6.43777 15.7025 6.81549 15.694C7.6045 15.6771 8.39351 15.4568 9.06501 15.067L9.51827 14.7958L8.99786 14.6178C8.25921 14.3636 7.5961 13.7789 7.42823 13.2281C7.37787 13.0501 7.39465 13.0417 7.8647 13.0417L8.35154 13.0332L7.94025 12.8383C7.45341 12.5925 7.00854 12.1773 6.7903 11.7536C6.63082 11.4486 6.42937 10.6774 6.48813 10.6181C6.50492 10.5927 6.68118 10.6435 6.88264 10.7113C7.4618 10.9232 7.53735 10.8723 7.2016 10.5164C6.57207 9.87239 6.37901 8.91482 6.68118 8.0081L6.82388 7.60135L7.37787 8.15216C8.51102 9.26226 9.84563 9.92323 11.3733 10.1181L11.793 10.169Z" fill="white"/>
</g>
<defs>
<clipPath id="clip0_164_734">
<rect width="24" height="24" fill="white" transform="translate(0.127197)"/>
</clipPath>
</defs>
</svg>
