<!--?xml version="1.0" encoding="utf-8"?-->
<!-- Svg Vector Icons : http://www.onlinewebfonts.com/icon -->

<svg version="1.1" xmlns="http://www.w3.org/2000/svg" xmlns:xlink="http://www.w3.org/1999/xlink" x="0px" y="0px" viewBox="0 0 256 256" enable-background="new 0 0 256 256" xml:space="preserve">
<metadata> Svg Vector Icons : http://www.onlinewebfonts.com/icon </metadata>
<g><g><path fill="#5768a4" data-title="Layer 0" xs="0" d="M216.5,234.2h-177C23.2,234.2,10,221,10,204.7V51.3C10,35,23.2,21.8,39.5,21.8h177c16.3,0,29.5,13.2,29.5,29.5v153.4C246,221,232.8,234.2,216.5,234.2L216.5,234.2z M234.2,51.3c0-9.8-7.9-17.7-17.7-17.7h-177c-9.8,0-17.7,7.9-17.7,17.7v153.4c0,9.8,7.9,17.7,17.7,17.7h177c9.8,0,17.7-7.9,17.7-17.7V51.3L234.2,51.3z M210.6,204.7H45.4c-3.3,0-5.9-2.6-5.9-5.9V187c0-1.4,0.5-2.7,1.3-3.8c2.7-3.2,26.8-31.6,49.2-31.6c11.6,0,19,4.6,26.3,9.1c6.8,4.2,13.2,8.6,23.7,8.6l0,0c7.7,0,12.1-6.4,19.3-17.8c9.1-14.3,21.4-34,49.8-41.1c1.8-0.5,3.6,0,5.1,1.1c1.4,1.1,2.3,2.8,2.3,4.6v82.6C216.5,202.1,213.9,204.7,210.6,204.7L210.6,204.7z M204.7,124.2c-18.7,7.1-27.5,21.1-35.4,33.6c-7.6,12-14.7,23.3-28.8,23.3l-0.9,0c-13.7-0.5-22.1-5.7-29.5-10.3c-6.3-3.9-11.8-7.3-20-7.3c-13.4,0-31.4,17.3-38.7,25.8v3.7h153.4L204.7,124.2L204.7,124.2L204.7,124.2z M98.5,128c-13,0-23.6-10.6-23.6-23.6c0-13,10.6-23.6,23.6-23.6c13,0,23.6,10.6,23.6,23.6C122.1,117.4,111.5,128,98.5,128L98.5,128z M98.5,92.6c-6.5,0-11.8,5.3-11.8,11.8c0,6.5,5.3,11.8,11.8,11.8s11.8-5.3,11.8-11.8C110.3,97.9,105,92.6,98.5,92.6L98.5,92.6z"/></g></g>
</svg>